<?xml version="1.0" encoding="UTF-8"?>
<svg id="Layer_2" data-name="Layer 2" xmlns="http://www.w3.org/2000/svg" viewBox="0 0 577.88 281.37">
  <defs>
    <style>
      .cls-1, .cls-2 {
        stroke-width: 0px;
      }

      .cls-1, .cls-3 {
        fill: #7ac143;
      }

      .cls-2, .cls-4 {
        fill: #f6afce;
      }

      .cls-4 {
        stroke: #f6afce;
        stroke-width: 27px;
      }

      .cls-4, .cls-3 {
        stroke-miterlimit: 10;
      }

      .cls-3 {
        stroke: #7ac143;
        stroke-width: 15px;
      }
    </style>
  </defs>
  <g id="Layer_1-2" data-name="Layer 1">
    <g>
      <path class="cls-2" d="M105.81,6.05c3.98,1.21,8.15,1.27,12.21,2.06,21.85,4.23,40.96,13.81,57.45,28.75,5.5,4.98,10.47,10.42,14.82,16.4,3.52,4.85,2.45,11.35-2.16,14.73-4.87,3.57-11.22,2.69-14.98-2.07-1.16-1.47-2.3-2.95-3.51-4.36-16.37-19.04-37.08-30.34-61.91-33.39-26.09-3.2-49.66,3.75-70.6,19.64-.19.15-.31.39-.77.99,2.31,0,4.3-.03,6.28,0,6.11.1,10.75,4.65,10.8,10.58.06,6.03-4.62,10.74-10.87,10.77-10.59.05-21.19.06-31.78,0-6.21-.04-10.73-4.62-10.76-10.87-.05-10.51-.04-21.01,0-31.52.02-6.31,4.58-10.99,10.62-11.02,6.03-.03,10.64,4.65,10.74,10.91.02,1.57,0,3.13,0,5.2,4.75-3.66,9.16-6.91,13.86-9.75,15.22-9.23,31.72-14.61,49.39-16.5.52-.06,1.09.02,1.4-.55h19.77Z"/>
      <path class="cls-1" d="M233.35,165.26c-3.66-20.2-13.21-37.49-28.23-51.5-20.35-18.98-52.59-18.62-72.66.69-8.01,7.71-15.69,15.77-23.9,24.05-.78-1.01-1.31-1.86-2-2.55-11.82-11.85-23.61-23.73-35.51-35.5-11.26-11.14-28.37-12.65-41.07-3.79-16.37,11.42-18.52,34.64-4.39,48.96,12.26,12.42,24.66,24.69,36.98,37.05.64.64,1.6,1.1,1.68,2.19-.27.17-.49.32-.72.46-19.56,11.07-22.94,35.7-7.09,51.62,4.4,4.42,8.84,8.79,13.21,13.23,14.74,14.95,32.32,24.47,53.07,28.07,2.2.38,4.58.07,6.6,1.37h18.17c.23-.72.85-.47,1.33-.52,26.49-2.94,48.31-14.69,64.97-35.41,18.51-23.02,24.8-49.45,19.56-78.42ZM209.4,207.92c-9.57,27.62-29.74,43.92-58.56,49.33-3.86.72-7.77.95-11.7.95-20.58-.31-38.34-7.45-53.05-21.96-4.88-4.81-9.72-9.67-14.55-14.54-4.66-4.7-4.89-11.11-.61-15.46,4.32-4.4,10.91-4.18,15.67.54,4.61,4.58,9.18,9.2,13.79,13.78,4.82,4.79,11.54,5.03,15.92.6,4.3-4.35,4.05-10.97-.69-15.71-24.72-24.76-49.46-49.5-74.22-74.22-2.83-2.82-4.35-6.02-3.61-10.07.76-4.12,3.15-6.93,7.09-8.25,3.95-1.33,7.6-.53,10.64,2.31,2.73,2.55,5.31,5.26,7.96,7.9,12.15,12.15,24.3,24.3,36.45,36.45,5.85,5.85,11.53,5.92,17.41.1,9.49-9.4,18.89-18.88,28.36-28.3,14.01-13.95,34.21-13.84,47.55.8,20.05,22.01,25.87,47.7,16.14,75.76Z"/>
      <path class="cls-3" d="M502.21,273.87c-2.13-1.58-2.6-3.73-2.59-6.29.01-8.09-.25-16.18,2.17-24.05,2.18-7.08,5.57-13.52,10.45-19.09,12.16-13.9,17.9-30.07,17.73-48.49-.13-14.54.02-29.09,0-43.63,0-1.8-.1-3.63-.42-5.39-1.03-5.6-5.51-9.18-11.17-9.07-5.45.1-9.62,3.89-10.47,9.53-.15,1.02-.18,2.06-.32,3.08-.36,2.64-1.84,4.06-4.15,4.04-2.4-.03-3.99-1.61-4.05-4.4-.1-4.39-.03-8.78-.05-13.17,0-1.55,0-3.1-.13-4.64-.54-6.19-5.3-10.31-11.77-10.24-6.42.07-11.22,4.08-11.57,10.14-.34,5.83-.26,11.69-.32,17.53-.02,1.97-.58,3.57-2.46,4.44-2.26,1.04-4.91-.16-5.52-2.61-.29-1.15-.28-2.38-.28-3.58,0-32.01,0-64.02,0-96.03,0-1.38-.02-2.76-.14-4.13-.49-5.64-4.68-9.59-10.61-10.04-6.13-.47-11.31,2.96-12.49,8.47-.37,1.74-.34,3.59-.34,5.39-.05,32.01-.08,64.02-.12,96.03,0,1.03.01,2.08-.15,3.09-.37,2.31-1.91,3.5-4.14,3.43-2.11-.06-3.55-1.27-3.84-3.47-.15-1.1-.12-2.23-.12-3.35.03-29.09.07-58.17.09-87.26,0-6.67-3.32-11.28-9.08-12.75-7.06-1.81-14.2,3.42-14.56,10.7-.08,1.63-.04,3.27-.04,4.9-.03,35.54-.06,71.08-.1,106.62,0,1.11.04,2.26-.21,3.33-.73,3.25-4.46,4.37-6.82,2.03-1.15-1.14-2.06-2.53-3.05-3.83-5.57-7.33-11.13-14.66-16.68-22-3.5-4.63-7.85-7.94-13.72-8.86-1.35-.21-2.75-.3-4.11-.19-7.87.62-11.4,6.36-8.35,13.62.69,1.65,1.56,3.29,2.66,4.7,14.32,18.32,24.14,38.93,31.33,60.91,3.13,9.56,7.75,18.26,14.35,26,8.17,9.58,11.89,20.97,11.96,33.55.02,3.18-.11,6.37,0,9.55.08,2.5-.81,4.33-3.05,5.48h-2.58c-2.1-1.32-2.68-3.21-2.72-5.66-.1-6.09-.16-12.22-.87-18.25-.79-6.69-3.52-12.92-7.97-17.92-9.15-10.27-14.61-22.38-18.81-35.21-6.26-19.13-15.38-36.74-27.69-52.69-3.09-4-5.36-8.43-5.91-13.54-1.08-10.19,6.58-18.39,17.7-18.84,9.77-.39,17.47,3.84,23.48,11.28,3.83,4.75,7.42,9.7,11.13,14.55.39.51.84.97,1.7,1.96,0-1.53,0-2.43,0-3.34.03-32.26.03-64.53.09-96.79.02-10.53,6.71-18.63,16.81-20.42,4.84-.85,9.41.11,13.63,2.64.72.43,1.43.88,2.33,1.43,2.16-6.24,6.22-10.42,12.3-12.48,12.06-4.09,27.1,2.96,27.02,19.33-.11,21.34-.04,42.68-.04,64.01,0,1,0,2,0,3.17,14.9-8.26,31.22.06,32.07,15.44.33-.07.68-.06.93-.22,10.79-6.92,29.1-1.43,29.53,17,.44,18.83.45,37.7-.44,56.51-.74,15.6-6.93,29.62-17.18,41.46-8.78,10.14-13.25,21.54-12.56,34.94.1,1.97-.09,3.97.07,5.93.2,2.45-.58,4.34-2.65,5.69h-3.1Z"/>
      <path class="cls-4" d="M549.31,26.29c-1.78-1.68-3.61-3.31-5.33-5.05-2.09-2.12-2.24-4.58-.53-6.37,1.83-1.92,4.3-1.82,6.55.4,4.24,4.18,8.46,8.38,12.63,12.63,2.37,2.41,2.35,4.52-.04,6.94-4.18,4.24-8.39,8.45-12.63,12.63-2.18,2.15-4.49,2.28-6.36.5-1.87-1.78-1.77-4.38.43-6.56,1.75-1.74,3.66-3.32,5.5-4.97-.15-.29-.31-.57-.46-.86-.93,0-1.87,0-2.8,0-10.84,0-21.69,0-32.53,0-.89,0-1.78.01-2.66-.11-2.27-.31-3.43-1.79-3.65-3.95-.21-2.06,1.36-3.92,3.55-4.3.95-.17,1.95-.17,2.92-.17,10.75-.01,21.51,0,32.26,0,.93,0,1.85,0,2.78,0,.13-.25.25-.5.38-.75Z"/>
      <path class="cls-4" d="M346.97,35.58c-7.46,0-14.92,0-22.38,0-.97,0-1.97.01-2.91-.2-2.11-.47-3.45-2.1-3.08-4.03.28-1.47,1.79-2.74,2.88-4,.27-.31,1.01-.28,1.54-.28,15.9-.01,31.79-.05,47.69.01,2.9.01,4.74,1.93,4.65,4.39-.09,2.45-1.94,4.07-4.94,4.08-7.82.05-15.63.02-23.45.02Z"/>
    </g>
  </g>
</svg>