<?xml version="1.0" encoding="UTF-8" standalone="no"?>
<svg
   width="2500"
   height="2500"
   viewBox="0 0 192.756 192.756"
   version="1.1"
   id="svg3"
   sodipodi:docname="difi.svg"
   inkscape:version="1.3.2 (091e20e, 2023-11-25, custom)"
   xmlns:inkscape="http://www.inkscape.org/namespaces/inkscape"
   xmlns:sodipodi="http://sodipodi.sourceforge.net/DTD/sodipodi-0.dtd"
   xmlns="http://www.w3.org/2000/svg"
   xmlns:svg="http://www.w3.org/2000/svg">
  <defs
     id="defs3" />
  <sodipodi:namedview
     id="namedview3"
     pagecolor="#ffffff"
     bordercolor="#000000"
     borderopacity="0.25"
     inkscape:showpageshadow="2"
     inkscape:pageopacity="0.0"
     inkscape:pagecheckerboard="0"
     inkscape:deskcolor="#d1d1d1"
     inkscape:zoom="0.4548"
     inkscape:cx="1248.9006"
     inkscape:cy="1250"
     inkscape:window-width="3440"
     inkscape:window-height="1351"
     inkscape:window-x="-9"
     inkscape:window-y="-9"
     inkscape:window-maximized="1"
     inkscape:current-layer="g3" />
  <g
     fill-rule="evenodd"
     clip-rule="evenodd"
     id="g3">
    <path
       d="M141.596 93.699H161.1l-13.502 23.359h-19.717l13.715-23.359zm9.644-16.93h19.502l-7.715 13.073h-19.502l7.715-13.073zm-82.936 0c4.072.215 7.5 1.5 9.43 4.286 1.929 3.215 1.929 6.858.857 10.716-1.714 5.357-5.572 10.93-9.001 15.43-4.5 5.144-10.93 9.216-18.216 9.858h-29.36L35.73 93.7h19.288c-2.786 4.929-7.072 12.001-7.072 12.001h3.643s1.5.215 2.357-.429c.643-.429 1.071-1.5 1.071-1.5l6.001-10.501c1.929-2.571-.214-3.644-3.215-3.215H27.157L35.3 76.983l33.004-.214zm70.079 13.072h-10.93s-1.93-.214-2.787.429c-.643.214-1.07 1.072-1.07 1.072l-1.5 2.357h13.93l-4.502 7.929-8.357-.214s-6 10.501-9.215 15.645H94.664l20.36-35.146c3.428-4.286 4.928-4.715 9.43-5.144h21.645l-7.716 13.072zm-55.292 3.858h19.503l-13.502 23.359H69.375l13.716-23.359zm9.644-16.93h19.501l-7.5 13.073H85.02l7.715-13.073z"
       fill="#04593c"
       id="path3"
       style="fill:#000000" />
  </g>
</svg>
