{
	"asset":{
		"generator":"Khronos glTF Blender I/O v4.0.44",
		"version":"2.0"
	},
	"scene":0,
	"scenes":[
		{
			"name":"Scene",
			"nodes":[
				0,
				1,
				2,
				3,
				4,
				5,
				6,
				7,
				8,
				9,
				10,
				11,
				12,
				13,
				14
			]
		}
	],
	"nodes":[
		{
			"mesh":0,
			"name":"leg1",
			"rotation":[
				-0.02888573706150055,
				-0.698279619216919,
				-0.7107090353965759,
				0.08039870858192444
			],
			"translation":[
				10.01258373260498,
				1.5904779434204102,
				7.525713920593262
			]
		},
		{
			"mesh":1,
			"name":"leg2",
			"rotation":[
				0.2734612822532654,
				-0.2711670994758606,
				-0.6355947256088257,
				0.6691088676452637
			],
			"translation":[
				-6.810969829559326,
				0.1674051284790039,
				8.372172355651855
			]
		},
		{
			"mesh":2,
			"name":"b2.001",
			"translation":[
				-20.193744659423828,
				2.2965641021728516,
				-7.566946983337402
			]
		},
		{
			"mesh":3,
			"name":"b2.002",
			"translation":[
				-20.193744659423828,
				2.2965641021728516,
				-5.740045547485352
			]
		},
		{
			"mesh":4,
			"name":"fanB",
			"rotation":[
				0.7071068286895752,
				0,
				0,
				0.7071068286895752
			],
			"translation":[
				-15.235198020935059,
				15.807463645935059,
				-16.066076278686523
			]
		},
		{
			"mesh":5,
			"name":"level2base",
			"translation":[
				0,
				9.995559692382812,
				-14.306349754333496
			]
		},
		{
			"mesh":6,
			"name":"level2guards",
			"rotation":[
				0,
				0,
				-0.7071066498756409,
				0.70710688829422
			],
			"translation":[
				18.29596710205078,
				11.96218490600586,
				-12.787578582763672
			]
		},
		{
			"mesh":7,
			"name":"wall1",
			"translation":[
				0.008591175079345703,
				0,
				0
			]
		},
		{
			"mesh":8,
			"name":"wall2",
			"rotation":[
				0,
				-0.7071067094802856,
				0,
				0.7071068286895752
			],
			"translation":[
				0.17495036125183105,
				0,
				4.405791282653809
			]
		},
		{
			"mesh":9,
			"name":"floor",
			"translation":[
				0,
				0.07493972778320312,
				0
			]
		},
		{
			"mesh":10,
			"name":"b1",
			"translation":[
				19.62451171875,
				1.1678295135498047,
				-12.647758483886719
			]
		},
		{
			"mesh":11,
			"name":"b2",
			"translation":[
				19.62451171875,
				3.0376482009887695,
				-12.674501419067383
			]
		},
		{
			"mesh":12,
			"name":"b3",
			"translation":[
				19.62451171875,
				0.795811653137207,
				-10.463678359985352
			]
		},
		{
			"mesh":13,
			"name":"b4",
			"translation":[
				19.62451171875,
				2.5621395111083984,
				-10.511069297790527
			]
		},
		{
			"mesh":14,
			"name":"b5",
			"translation":[
				17.842517852783203,
				0.7394437789916992,
				-11.668282508850098
			]
		}
	],
	"meshes":[
		{
			"name":"leg1",
			"primitives":[
				{
					"attributes":{
						"POSITION":0,
						"NORMAL":1,
						"TEXCOORD_0":2
					},
					"indices":3
				}
			]
		},
		{
			"name":"leg2",
			"primitives":[
				{
					"attributes":{
						"POSITION":4,
						"NORMAL":5,
						"TEXCOORD_0":6
					},
					"indices":7
				}
			]
		},
		{
			"name":"b2.001",
			"primitives":[
				{
					"attributes":{
						"POSITION":8,
						"NORMAL":9,
						"TEXCOORD_0":10
					},
					"indices":11
				}
			]
		},
		{
			"name":"b2.002",
			"primitives":[
				{
					"attributes":{
						"POSITION":12,
						"NORMAL":13,
						"TEXCOORD_0":14
					},
					"indices":15
				}
			]
		},
		{
			"name":"fanB",
			"primitives":[
				{
					"attributes":{
						"POSITION":16,
						"NORMAL":17,
						"TEXCOORD_0":18
					},
					"indices":19
				}
			]
		},
		{
			"name":"level2base",
			"primitives":[
				{
					"attributes":{
						"POSITION":20,
						"NORMAL":21,
						"TEXCOORD_0":22
					},
					"indices":23
				}
			]
		},
		{
			"name":"level2guards",
			"primitives":[
				{
					"attributes":{
						"POSITION":24,
						"NORMAL":25,
						"TEXCOORD_0":26
					},
					"indices":27
				}
			]
		},
		{
			"name":"wall1",
			"primitives":[
				{
					"attributes":{
						"POSITION":28,
						"NORMAL":29,
						"TEXCOORD_0":30
					},
					"indices":31
				}
			]
		},
		{
			"name":"wall2",
			"primitives":[
				{
					"attributes":{
						"POSITION":32,
						"NORMAL":33,
						"TEXCOORD_0":34
					},
					"indices":35
				}
			]
		},
		{
			"name":"floor",
			"primitives":[
				{
					"attributes":{
						"POSITION":36,
						"NORMAL":37,
						"TEXCOORD_0":38
					},
					"indices":39
				}
			]
		},
		{
			"name":"b1",
			"primitives":[
				{
					"attributes":{
						"POSITION":40,
						"NORMAL":41,
						"TEXCOORD_0":42
					},
					"indices":43
				}
			]
		},
		{
			"name":"b2",
			"primitives":[
				{
					"attributes":{
						"POSITION":44,
						"NORMAL":45,
						"TEXCOORD_0":46
					},
					"indices":43
				}
			]
		},
		{
			"name":"b3",
			"primitives":[
				{
					"attributes":{
						"POSITION":47,
						"NORMAL":48,
						"TEXCOORD_0":49
					},
					"indices":43
				}
			]
		},
		{
			"name":"b4",
			"primitives":[
				{
					"attributes":{
						"POSITION":50,
						"NORMAL":51,
						"TEXCOORD_0":52
					},
					"indices":43
				}
			]
		},
		{
			"name":"b5",
			"primitives":[
				{
					"attributes":{
						"POSITION":53,
						"NORMAL":54,
						"TEXCOORD_0":55
					},
					"indices":43
				}
			]
		}
	],
	"accessors":[
		{
			"bufferView":0,
			"componentType":5126,
			"count":720,
			"max":[
				9.875711441040039,
				1.0218327045440674,
				1.460828185081482
			],
			"min":[
				-2.2094345092773438,
				-1.2045774459838867,
				-1.1579192876815796
			],
			"type":"VEC3"
		},
		{
			"bufferView":1,
			"componentType":5126,
			"count":720,
			"type":"VEC3"
		},
		{
			"bufferView":2,
			"componentType":5126,
			"count":720,
			"type":"VEC2"
		},
		{
			"bufferView":3,
			"componentType":5123,
			"count":1212,
			"type":"SCALAR"
		},
		{
			"bufferView":4,
			"componentType":5126,
			"count":560,
			"max":[
				0.04458215832710266,
				0.9354715943336487,
				1.4721380472183228
			],
			"min":[
				-4.264041423797607,
				-0.6662458777427673,
				-0.7327616214752197
			],
			"type":"VEC3"
		},
		{
			"bufferView":5,
			"componentType":5126,
			"count":560,
			"type":"VEC3"
		},
		{
			"bufferView":6,
			"componentType":5126,
			"count":560,
			"type":"VEC2"
		},
		{
			"bufferView":7,
			"componentType":5123,
			"count":918,
			"type":"SCALAR"
		},
		{
			"bufferView":8,
			"componentType":5126,
			"count":10,
			"max":[
				0.3912470042705536,
				2.1285173892974854,
				0.6879759430885315
			],
			"min":[
				-0.3912470042705536,
				-2.128516912460327,
				-0.6879762411117554
			],
			"type":"VEC3"
		},
		{
			"bufferView":9,
			"componentType":5126,
			"count":10,
			"type":"VEC3"
		},
		{
			"bufferView":10,
			"componentType":5126,
			"count":10,
			"type":"VEC2"
		},
		{
			"bufferView":11,
			"componentType":5123,
			"count":24,
			"type":"SCALAR"
		},
		{
			"bufferView":12,
			"componentType":5126,
			"count":16,
			"max":[
				0.3912470042705536,
				2.1285173892974854,
				0.6879759430885315
			],
			"min":[
				-0.3912470042705536,
				-2.128516912460327,
				-0.6879762411117554
			],
			"type":"VEC3"
		},
		{
			"bufferView":13,
			"componentType":5126,
			"count":16,
			"type":"VEC3"
		},
		{
			"bufferView":14,
			"componentType":5126,
			"count":16,
			"type":"VEC2"
		},
		{
			"bufferView":15,
			"componentType":5123,
			"count":24,
			"type":"SCALAR"
		},
		{
			"bufferView":16,
			"componentType":5126,
			"count":120,
			"max":[
				1.4874558448791504,
				0.10363950580358505,
				1.564003586769104
			],
			"min":[
				-1.4874558448791504,
				-0.15640036761760712,
				-1.564003586769104
			],
			"type":"VEC3"
		},
		{
			"bufferView":17,
			"componentType":5126,
			"count":120,
			"type":"VEC3"
		},
		{
			"bufferView":18,
			"componentType":5126,
			"count":120,
			"type":"VEC2"
		},
		{
			"bufferView":19,
			"componentType":5123,
			"count":180,
			"type":"SCALAR"
		},
		{
			"bufferView":20,
			"componentType":5126,
			"count":26,
			"max":[
				18.821571350097656,
				0,
				20.927717208862305
			],
			"min":[
				-20.62574005126953,
				-0.14477157592773438,
				-1.9212967157363892
			],
			"type":"VEC3"
		},
		{
			"bufferView":21,
			"componentType":5126,
			"count":26,
			"type":"VEC3"
		},
		{
			"bufferView":22,
			"componentType":5126,
			"count":26,
			"type":"VEC2"
		},
		{
			"bufferView":23,
			"componentType":5123,
			"count":42,
			"type":"SCALAR"
		},
		{
			"bufferView":24,
			"componentType":5126,
			"count":504,
			"max":[
				1.9751596450805664,
				0.47560936212539673,
				19.284425735473633
			],
			"min":[
				-0.20545987784862518,
				-38.90735626220703,
				-3.441235065460205
			],
			"type":"VEC3"
		},
		{
			"bufferView":25,
			"componentType":5126,
			"count":504,
			"type":"VEC3"
		},
		{
			"bufferView":26,
			"componentType":5126,
			"count":504,
			"type":"VEC2"
		},
		{
			"bufferView":27,
			"componentType":5123,
			"count":846,
			"type":"SCALAR"
		},
		{
			"bufferView":28,
			"componentType":5126,
			"count":12,
			"max":[
				-20.635677337646484,
				20.346893310546875,
				16.79990577697754
			],
			"min":[
				-21.014408111572266,
				0.0004978179931640625,
				-16.604753494262695
			],
			"type":"VEC3"
		},
		{
			"bufferView":29,
			"componentType":5126,
			"count":12,
			"type":"VEC3"
		},
		{
			"bufferView":30,
			"componentType":5126,
			"count":12,
			"type":"VEC2"
		},
		{
			"bufferView":31,
			"componentType":5123,
			"count":18,
			"type":"SCALAR"
		},
		{
			"bufferView":32,
			"componentType":5126,
			"count":12,
			"max":[
				-20.63567352294922,
				20.346893310546875,
				20.801931381225586
			],
			"min":[
				-21.014408111572266,
				0.0004978179931640625,
				-20.82537269592285
			],
			"type":"VEC3"
		},
		{
			"bufferView":33,
			"componentType":5126,
			"count":12,
			"type":"VEC3"
		},
		{
			"bufferView":34,
			"componentType":5126,
			"count":12,
			"type":"VEC2"
		},
		{
			"bufferView":35,
			"componentType":5123,
			"count":18,
			"type":"SCALAR"
		},
		{
			"bufferView":36,
			"componentType":5126,
			"count":12,
			"max":[
				21,
				0.07427310943603516,
				16.85707664489746
			],
			"min":[
				-20.626991271972656,
				-0.07427310943603516,
				-16.22986602783203
			],
			"type":"VEC3"
		},
		{
			"bufferView":37,
			"componentType":5126,
			"count":12,
			"type":"VEC3"
		},
		{
			"bufferView":38,
			"componentType":5126,
			"count":12,
			"type":"VEC2"
		},
		{
			"bufferView":39,
			"componentType":5123,
			"count":18,
			"type":"SCALAR"
		},
		{
			"bufferView":40,
			"componentType":5126,
			"count":20,
			"max":[
				1,
				1,
				1
			],
			"min":[
				-1,
				-1,
				-1
			],
			"type":"VEC3"
		},
		{
			"bufferView":41,
			"componentType":5126,
			"count":20,
			"type":"VEC3"
		},
		{
			"bufferView":42,
			"componentType":5126,
			"count":20,
			"type":"VEC2"
		},
		{
			"bufferView":43,
			"componentType":5123,
			"count":30,
			"type":"SCALAR"
		},
		{
			"bufferView":44,
			"componentType":5126,
			"count":20,
			"max":[
				0.8383612036705017,
				0.8383612632751465,
				0.8383610248565674
			],
			"min":[
				-0.8383612036705017,
				-0.8383611440658569,
				-0.838361382484436
			],
			"type":"VEC3"
		},
		{
			"bufferView":45,
			"componentType":5126,
			"count":20,
			"type":"VEC3"
		},
		{
			"bufferView":46,
			"componentType":5126,
			"count":20,
			"type":"VEC2"
		},
		{
			"bufferView":47,
			"componentType":5126,
			"count":20,
			"max":[
				0.630955696105957,
				0.630955696105957,
				1.017163872718811
			],
			"min":[
				-0.630955696105957,
				-0.630955696105957,
				-1.0171626806259155
			],
			"type":"VEC3"
		},
		{
			"bufferView":48,
			"componentType":5126,
			"count":20,
			"type":"VEC3"
		},
		{
			"bufferView":49,
			"componentType":5126,
			"count":20,
			"type":"VEC2"
		},
		{
			"bufferView":50,
			"componentType":5126,
			"count":20,
			"max":[
				0.5742234587669373,
				0.021912142634391785,
				0.5136802196502686
			],
			"min":[
				-0.5742234587669373,
				-1.1265348196029663,
				-0.634766697883606
			],
			"type":"VEC3"
		},
		{
			"bufferView":51,
			"componentType":5126,
			"count":20,
			"type":"VEC3"
		},
		{
			"bufferView":52,
			"componentType":5126,
			"count":20,
			"type":"VEC2"
		},
		{
			"bufferView":53,
			"componentType":5126,
			"count":20,
			"max":[
				0.5457049608230591,
				0.5457057356834412,
				0.5457051992416382
			],
			"min":[
				-0.5457063317298889,
				-0.5457055568695068,
				-0.5457060933113098
			],
			"type":"VEC3"
		},
		{
			"bufferView":54,
			"componentType":5126,
			"count":20,
			"type":"VEC3"
		},
		{
			"bufferView":55,
			"componentType":5126,
			"count":20,
			"type":"VEC2"
		}
	],
	"bufferViews":[
		{
			"buffer":0,
			"byteLength":8640,
			"byteOffset":0,
			"target":34962
		},
		{
			"buffer":0,
			"byteLength":8640,
			"byteOffset":8640,
			"target":34962
		},
		{
			"buffer":0,
			"byteLength":5760,
			"byteOffset":17280,
			"target":34962
		},
		{
			"buffer":0,
			"byteLength":2424,
			"byteOffset":23040,
			"target":34963
		},
		{
			"buffer":0,
			"byteLength":6720,
			"byteOffset":25464,
			"target":34962
		},
		{
			"buffer":0,
			"byteLength":6720,
			"byteOffset":32184,
			"target":34962
		},
		{
			"buffer":0,
			"byteLength":4480,
			"byteOffset":38904,
			"target":34962
		},
		{
			"buffer":0,
			"byteLength":1836,
			"byteOffset":43384,
			"target":34963
		},
		{
			"buffer":0,
			"byteLength":120,
			"byteOffset":45220,
			"target":34962
		},
		{
			"buffer":0,
			"byteLength":120,
			"byteOffset":45340,
			"target":34962
		},
		{
			"buffer":0,
			"byteLength":80,
			"byteOffset":45460,
			"target":34962
		},
		{
			"buffer":0,
			"byteLength":48,
			"byteOffset":45540,
			"target":34963
		},
		{
			"buffer":0,
			"byteLength":192,
			"byteOffset":45588,
			"target":34962
		},
		{
			"buffer":0,
			"byteLength":192,
			"byteOffset":45780,
			"target":34962
		},
		{
			"buffer":0,
			"byteLength":128,
			"byteOffset":45972,
			"target":34962
		},
		{
			"buffer":0,
			"byteLength":48,
			"byteOffset":46100,
			"target":34963
		},
		{
			"buffer":0,
			"byteLength":1440,
			"byteOffset":46148,
			"target":34962
		},
		{
			"buffer":0,
			"byteLength":1440,
			"byteOffset":47588,
			"target":34962
		},
		{
			"buffer":0,
			"byteLength":960,
			"byteOffset":49028,
			"target":34962
		},
		{
			"buffer":0,
			"byteLength":360,
			"byteOffset":49988,
			"target":34963
		},
		{
			"buffer":0,
			"byteLength":312,
			"byteOffset":50348,
			"target":34962
		},
		{
			"buffer":0,
			"byteLength":312,
			"byteOffset":50660,
			"target":34962
		},
		{
			"buffer":0,
			"byteLength":208,
			"byteOffset":50972,
			"target":34962
		},
		{
			"buffer":0,
			"byteLength":84,
			"byteOffset":51180,
			"target":34963
		},
		{
			"buffer":0,
			"byteLength":6048,
			"byteOffset":51264,
			"target":34962
		},
		{
			"buffer":0,
			"byteLength":6048,
			"byteOffset":57312,
			"target":34962
		},
		{
			"buffer":0,
			"byteLength":4032,
			"byteOffset":63360,
			"target":34962
		},
		{
			"buffer":0,
			"byteLength":1692,
			"byteOffset":67392,
			"target":34963
		},
		{
			"buffer":0,
			"byteLength":144,
			"byteOffset":69084,
			"target":34962
		},
		{
			"buffer":0,
			"byteLength":144,
			"byteOffset":69228,
			"target":34962
		},
		{
			"buffer":0,
			"byteLength":96,
			"byteOffset":69372,
			"target":34962
		},
		{
			"buffer":0,
			"byteLength":36,
			"byteOffset":69468,
			"target":34963
		},
		{
			"buffer":0,
			"byteLength":144,
			"byteOffset":69504,
			"target":34962
		},
		{
			"buffer":0,
			"byteLength":144,
			"byteOffset":69648,
			"target":34962
		},
		{
			"buffer":0,
			"byteLength":96,
			"byteOffset":69792,
			"target":34962
		},
		{
			"buffer":0,
			"byteLength":36,
			"byteOffset":69888,
			"target":34963
		},
		{
			"buffer":0,
			"byteLength":144,
			"byteOffset":69924,
			"target":34962
		},
		{
			"buffer":0,
			"byteLength":144,
			"byteOffset":70068,
			"target":34962
		},
		{
			"buffer":0,
			"byteLength":96,
			"byteOffset":70212,
			"target":34962
		},
		{
			"buffer":0,
			"byteLength":36,
			"byteOffset":70308,
			"target":34963
		},
		{
			"buffer":0,
			"byteLength":240,
			"byteOffset":70344,
			"target":34962
		},
		{
			"buffer":0,
			"byteLength":240,
			"byteOffset":70584,
			"target":34962
		},
		{
			"buffer":0,
			"byteLength":160,
			"byteOffset":70824,
			"target":34962
		},
		{
			"buffer":0,
			"byteLength":60,
			"byteOffset":70984,
			"target":34963
		},
		{
			"buffer":0,
			"byteLength":240,
			"byteOffset":71044,
			"target":34962
		},
		{
			"buffer":0,
			"byteLength":240,
			"byteOffset":71284,
			"target":34962
		},
		{
			"buffer":0,
			"byteLength":160,
			"byteOffset":71524,
			"target":34962
		},
		{
			"buffer":0,
			"byteLength":240,
			"byteOffset":71684,
			"target":34962
		},
		{
			"buffer":0,
			"byteLength":240,
			"byteOffset":71924,
			"target":34962
		},
		{
			"buffer":0,
			"byteLength":160,
			"byteOffset":72164,
			"target":34962
		},
		{
			"buffer":0,
			"byteLength":240,
			"byteOffset":72324,
			"target":34962
		},
		{
			"buffer":0,
			"byteLength":240,
			"byteOffset":72564,
			"target":34962
		},
		{
			"buffer":0,
			"byteLength":160,
			"byteOffset":72804,
			"target":34962
		},
		{
			"buffer":0,
			"byteLength":240,
			"byteOffset":72964,
			"target":34962
		},
		{
			"buffer":0,
			"byteLength":240,
			"byteOffset":73204,
			"target":34962
		},
		{
			"buffer":0,
			"byteLength":160,
			"byteOffset":73444,
			"target":34962
		}
	],
	"buffers":[
		{
			"byteLength":73604,
			"uri":"base-static.bin"
		}
	]
}
