{
	"asset":{
		"generator":"Khronos glTF Blender I/O v4.0.44",
		"version":"2.0"
	},
	"scene":0,
	"scenes":[
		{
			"name":"Scene",
			"nodes":[
				0
			]
		}
	],
	"nodes":[
		{
			"mesh":0,
			"name":"miniRobo7",
			"rotation":[
				-0.8399591445922852,
				0.04680965095758438,
				-0.5365158319473267,
				0.06654547899961472
			],
			"translation":[
				-13.622807502746582,
				8.267539978027344,
				-0.04048347473144531
			]
		}
	],
	"animations":[
		{
			"channels":[
				{
					"sampler":0,
					"target":{
						"node":0,
						"path":"translation"
					}
				},
				{
					"sampler":1,
					"target":{
						"node":0,
						"path":"rotation"
					}
				}
			],
			"name":"search",
			"samplers":[
				{
					"input":4,
					"interpolation":"LINEAR",
					"output":5
				},
				{
					"input":4,
					"interpolation":"LINEAR",
					"output":6
				}
			]
		}
	],
	"meshes":[
		{
			"name":"miniRobo7",
			"primitives":[
				{
					"attributes":{
						"POSITION":0,
						"NORMAL":1,
						"TEXCOORD_0":2
					},
					"indices":3
				}
			]
		}
	],
	"accessors":[
		{
			"bufferView":0,
			"componentType":5126,
			"count":1378,
			"max":[
				0.852064847946167,
				0.5186083912849426,
				0.2980842888355255
			],
			"min":[
				-0.2572971284389496,
				-0.9512492418289185,
				-2.553182363510132
			],
			"type":"VEC3"
		},
		{
			"bufferView":1,
			"componentType":5126,
			"count":1378,
			"type":"VEC3"
		},
		{
			"bufferView":2,
			"componentType":5126,
			"count":1378,
			"type":"VEC2"
		},
		{
			"bufferView":3,
			"componentType":5123,
			"count":2268,
			"type":"SCALAR"
		},
		{
			"bufferView":4,
			"componentType":5126,
			"count":559,
			"max":[
				23.291666666666668
			],
			"min":[
				0.041666666666666664
			],
			"type":"SCALAR"
		},
		{
			"bufferView":5,
			"componentType":5126,
			"count":559,
			"type":"VEC3"
		},
		{
			"bufferView":6,
			"componentType":5126,
			"count":559,
			"type":"VEC4"
		}
	],
	"bufferViews":[
		{
			"buffer":0,
			"byteLength":16536,
			"byteOffset":0,
			"target":34962
		},
		{
			"buffer":0,
			"byteLength":16536,
			"byteOffset":16536,
			"target":34962
		},
		{
			"buffer":0,
			"byteLength":11024,
			"byteOffset":33072,
			"target":34962
		},
		{
			"buffer":0,
			"byteLength":4536,
			"byteOffset":44096,
			"target":34963
		},
		{
			"buffer":0,
			"byteLength":2236,
			"byteOffset":48632
		},
		{
			"buffer":0,
			"byteLength":6708,
			"byteOffset":50868
		},
		{
			"buffer":0,
			"byteLength":8944,
			"byteOffset":57576
		}
	],
	"buffers":[
		{
			"byteLength":66520,
			"uri":"miniRobot.bin"
		}
	]
}
