{
	"asset":{
		"generator":"Khronos glTF Blender I/O v4.0.44",
		"version":"2.0"
	},
	"scene":0,
	"scenes":[
		{
			"name":"Scene",
			"nodes":[
				0,
				1,
				2
			]
		}
	],
	"nodes":[
		{
			"mesh":0,
			"name":"single-chair-1",
			"translation":[
				-13.385502815246582,
				0.6694936752319336,
				-8.30138111114502
			]
		},
		{
			"mesh":1,
			"name":"single-chair-2",
			"rotation":[
				0,
				-1,
				0,
				7.549790126404332e-08
			],
			"translation":[
				-15.039429664611816,
				0.6694936752319336,
				-10.623262405395508
			]
		},
		{
			"mesh":2,
			"name":"single-table",
			"translation":[
				-14.183513641357422,
				1.0270471572875977,
				-9.322883605957031
			]
		}
	],
	"meshes":[
		{
			"name":"chair.002",
			"primitives":[
				{
					"attributes":{
						"POSITION":0,
						"NORMAL":1,
						"TEXCOORD_0":2
					},
					"indices":3
				}
			]
		},
		{
			"name":"chair.003",
			"primitives":[
				{
					"attributes":{
						"POSITION":4,
						"NORMAL":5,
						"TEXCOORD_0":6
					},
					"indices":7
				}
			]
		},
		{
			"name":"table.001",
			"primitives":[
				{
					"attributes":{
						"POSITION":8,
						"NORMAL":9,
						"TEXCOORD_0":10
					},
					"indices":11
				}
			]
		}
	],
	"accessors":[
		{
			"bufferView":0,
			"componentType":5126,
			"count":78,
			"max":[
				0.3316590189933777,
				0.45231181383132935,
				0.2996804714202881
			],
			"min":[
				-0.33165818452835083,
				-0.5194764137268066,
				-0.2708445191383362
			],
			"type":"VEC3"
		},
		{
			"bufferView":1,
			"componentType":5126,
			"count":78,
			"type":"VEC3"
		},
		{
			"bufferView":2,
			"componentType":5126,
			"count":78,
			"type":"VEC2"
		},
		{
			"bufferView":3,
			"componentType":5123,
			"count":126,
			"type":"SCALAR"
		},
		{
			"bufferView":4,
			"componentType":5126,
			"count":80,
			"max":[
				0.3316590189933777,
				0.45231181383132935,
				0.2996804714202881
			],
			"min":[
				-0.33165818452835083,
				-0.5194764137268066,
				-0.2708445191383362
			],
			"type":"VEC3"
		},
		{
			"bufferView":5,
			"componentType":5126,
			"count":80,
			"type":"VEC3"
		},
		{
			"bufferView":6,
			"componentType":5126,
			"count":80,
			"type":"VEC2"
		},
		{
			"bufferView":7,
			"componentType":5123,
			"count":132,
			"type":"SCALAR"
		},
		{
			"bufferView":8,
			"componentType":5126,
			"count":224,
			"max":[
				2.0218114852905273,
				0.7885844707489014,
				1.0108740329742432
			],
			"min":[
				-2.0218114852905273,
				-0.8669878244400024,
				-1.010938048362732
			],
			"type":"VEC3"
		},
		{
			"bufferView":9,
			"componentType":5126,
			"count":224,
			"type":"VEC3"
		},
		{
			"bufferView":10,
			"componentType":5126,
			"count":224,
			"type":"VEC2"
		},
		{
			"bufferView":11,
			"componentType":5123,
			"count":378,
			"type":"SCALAR"
		}
	],
	"bufferViews":[
		{
			"buffer":0,
			"byteLength":936,
			"byteOffset":0,
			"target":34962
		},
		{
			"buffer":0,
			"byteLength":936,
			"byteOffset":936,
			"target":34962
		},
		{
			"buffer":0,
			"byteLength":624,
			"byteOffset":1872,
			"target":34962
		},
		{
			"buffer":0,
			"byteLength":252,
			"byteOffset":2496,
			"target":34963
		},
		{
			"buffer":0,
			"byteLength":960,
			"byteOffset":2748,
			"target":34962
		},
		{
			"buffer":0,
			"byteLength":960,
			"byteOffset":3708,
			"target":34962
		},
		{
			"buffer":0,
			"byteLength":640,
			"byteOffset":4668,
			"target":34962
		},
		{
			"buffer":0,
			"byteLength":264,
			"byteOffset":5308,
			"target":34963
		},
		{
			"buffer":0,
			"byteLength":2688,
			"byteOffset":5572,
			"target":34962
		},
		{
			"buffer":0,
			"byteLength":2688,
			"byteOffset":8260,
			"target":34962
		},
		{
			"buffer":0,
			"byteLength":1792,
			"byteOffset":10948,
			"target":34962
		},
		{
			"buffer":0,
			"byteLength":756,
			"byteOffset":12740,
			"target":34963
		}
	],
	"buffers":[
		{
			"byteLength":13496,
			"uri":"workstation.bin"
		}
	]
}
