{
	"asset":{
		"generator":"Khronos glTF Blender I/O v4.0.44",
		"version":"2.0"
	},
	"scene":0,
	"scenes":[
		{
			"name":"Scene",
			"nodes":[
				0,
				1,
				2,
				4
			]
		}
	],
	"nodes":[
		{
			"mesh":0,
			"name":"armR",
			"rotation":[
				0.27073830366134644,
				-0.9335433840751648,
				-0.0654393658041954,
				0.2256440818309784
			],
			"translation":[
				-8.142245292663574,
				9.081306457519531,
				-1.9851264953613281
			]
		},
		{
			"mesh":1,
			"name":"chain-1",
			"translation":[
				-14.293018341064453,
				7.534353256225586,
				1.2182683944702148
			]
		},
		{
			"mesh":2,
			"name":"chain-2",
			"translation":[
				-9.612560272216797,
				9.066766738891602,
				-1.3406848907470703
			]
		},
		{
			"mesh":3,
			"name":"bigRobotarmL",
			"translation":[
				12.830601692199707,
				9.118205070495605,
				0
			]
		},
		{
			"children":[
				3
			],
			"mesh":4,
			"name":"bigRobotBody",
			"translation":[
				0,
				0.15635967254638672,
				0
			]
		}
	],
	"meshes":[
		{
			"name":"armR",
			"primitives":[
				{
					"attributes":{
						"POSITION":0,
						"NORMAL":1,
						"TEXCOORD_0":2
					},
					"indices":3
				}
			]
		},
		{
			"name":"Cylinder.001",
			"primitives":[
				{
					"attributes":{
						"POSITION":4,
						"NORMAL":5,
						"TEXCOORD_0":6
					},
					"indices":7
				}
			]
		},
		{
			"name":"Cylinder.002",
			"primitives":[
				{
					"attributes":{
						"POSITION":8,
						"NORMAL":9,
						"TEXCOORD_0":10
					},
					"indices":7
				}
			]
		},
		{
			"name":"bigRobotarmL",
			"primitives":[
				{
					"attributes":{
						"POSITION":11,
						"NORMAL":12,
						"TEXCOORD_0":13
					},
					"indices":14
				}
			]
		},
		{
			"name":"bigRobotBody",
			"primitives":[
				{
					"attributes":{
						"POSITION":15,
						"NORMAL":16,
						"TEXCOORD_0":17
					},
					"indices":18
				}
			]
		}
	],
	"accessors":[
		{
			"bufferView":0,
			"componentType":5126,
			"count":652,
			"max":[
				8.026189804077148,
				3.802739381790161,
				1.3340167999267578
			],
			"min":[
				-1.9009816646575928,
				-1.0967559814453125,
				-1.1579192876815796
			],
			"type":"VEC3"
		},
		{
			"bufferView":1,
			"componentType":5126,
			"count":652,
			"type":"VEC3"
		},
		{
			"bufferView":2,
			"componentType":5126,
			"count":652,
			"type":"VEC2"
		},
		{
			"bufferView":3,
			"componentType":5123,
			"count":1188,
			"type":"SCALAR"
		},
		{
			"bufferView":4,
			"componentType":5126,
			"count":20,
			"max":[
				0.04266871511936188,
				13.049945831298828,
				-0.05432755872607231
			],
			"min":[
				-0.043896038085222244,
				-0.012888908386230469,
				-0.1366555243730545
			],
			"type":"VEC3"
		},
		{
			"bufferView":5,
			"componentType":5126,
			"count":20,
			"type":"VEC3"
		},
		{
			"bufferView":6,
			"componentType":5126,
			"count":20,
			"type":"VEC2"
		},
		{
			"bufferView":7,
			"componentType":5123,
			"count":30,
			"type":"SCALAR"
		},
		{
			"bufferView":8,
			"componentType":5126,
			"count":20,
			"max":[
				0.04266871511936188,
				13.049945831298828,
				-0.05432755872607231
			],
			"min":[
				-0.043896038085222244,
				-0.012888908386230469,
				-0.1366555243730545
			],
			"type":"VEC3"
		},
		{
			"bufferView":9,
			"componentType":5126,
			"count":20,
			"type":"VEC3"
		},
		{
			"bufferView":10,
			"componentType":5126,
			"count":20,
			"type":"VEC2"
		},
		{
			"bufferView":11,
			"componentType":5126,
			"count":468,
			"max":[
				-2.051626205444336,
				0.603533923625946,
				1.1579188108444214
			],
			"min":[
				-7.734417915344238,
				-7.390652179718018,
				-1.1579197645187378
			],
			"type":"VEC3"
		},
		{
			"bufferView":12,
			"componentType":5126,
			"count":468,
			"type":"VEC3"
		},
		{
			"bufferView":13,
			"componentType":5126,
			"count":468,
			"type":"VEC2"
		},
		{
			"bufferView":14,
			"componentType":5123,
			"count":792,
			"type":"SCALAR"
		},
		{
			"bufferView":15,
			"componentType":5126,
			"count":771,
			"max":[
				5.5280609130859375,
				14.321907043457031,
				3.467970371246338
			],
			"min":[
				-5.5280609130859375,
				-9.313225746154785e-09,
				-2.692788600921631
			],
			"type":"VEC3"
		},
		{
			"bufferView":16,
			"componentType":5126,
			"count":771,
			"type":"VEC3"
		},
		{
			"bufferView":17,
			"componentType":5126,
			"count":771,
			"type":"VEC2"
		},
		{
			"bufferView":18,
			"componentType":5123,
			"count":1338,
			"type":"SCALAR"
		}
	],
	"bufferViews":[
		{
			"buffer":0,
			"byteLength":7824,
			"byteOffset":0,
			"target":34962
		},
		{
			"buffer":0,
			"byteLength":7824,
			"byteOffset":7824,
			"target":34962
		},
		{
			"buffer":0,
			"byteLength":5216,
			"byteOffset":15648,
			"target":34962
		},
		{
			"buffer":0,
			"byteLength":2376,
			"byteOffset":20864,
			"target":34963
		},
		{
			"buffer":0,
			"byteLength":240,
			"byteOffset":23240,
			"target":34962
		},
		{
			"buffer":0,
			"byteLength":240,
			"byteOffset":23480,
			"target":34962
		},
		{
			"buffer":0,
			"byteLength":160,
			"byteOffset":23720,
			"target":34962
		},
		{
			"buffer":0,
			"byteLength":60,
			"byteOffset":23880,
			"target":34963
		},
		{
			"buffer":0,
			"byteLength":240,
			"byteOffset":23940,
			"target":34962
		},
		{
			"buffer":0,
			"byteLength":240,
			"byteOffset":24180,
			"target":34962
		},
		{
			"buffer":0,
			"byteLength":160,
			"byteOffset":24420,
			"target":34962
		},
		{
			"buffer":0,
			"byteLength":5616,
			"byteOffset":24580,
			"target":34962
		},
		{
			"buffer":0,
			"byteLength":5616,
			"byteOffset":30196,
			"target":34962
		},
		{
			"buffer":0,
			"byteLength":3744,
			"byteOffset":35812,
			"target":34962
		},
		{
			"buffer":0,
			"byteLength":1584,
			"byteOffset":39556,
			"target":34963
		},
		{
			"buffer":0,
			"byteLength":9252,
			"byteOffset":41140,
			"target":34962
		},
		{
			"buffer":0,
			"byteLength":9252,
			"byteOffset":50392,
			"target":34962
		},
		{
			"buffer":0,
			"byteLength":6168,
			"byteOffset":59644,
			"target":34962
		},
		{
			"buffer":0,
			"byteLength":2676,
			"byteOffset":65812,
			"target":34963
		}
	],
	"buffers":[
		{
			"byteLength":68488,
			"uri":"bigRobot.bin"
		}
	]
}
