{
	"asset":{
		"generator":"Khronos glTF Blender I/O v4.0.44",
		"version":"2.0"
	},
	"scene":0,
	"scenes":[
		{
			"name":"Scene",
			"nodes":[
				0,
				1,
				2
			]
		}
	],
	"nodes":[
		{
			"mesh":0,
			"name":"d1",
			"rotation":[
				0.5,
				0.5,
				-0.4999999403953552,
				0.5000000596046448
			],
			"translation":[
				-20.51476287841797,
				1.1615562438964844,
				12.904723167419434
			]
		},
		{
			"mesh":1,
			"name":"d2",
			"rotation":[
				0.5,
				0.5,
				-0.4999999403953552,
				0.5000000596046448
			],
			"translation":[
				-20.624069213867188,
				0.15757179260253906,
				13.91715145111084
			]
		},
		{
			"mesh":2,
			"name":"d3",
			"rotation":[
				0.5,
				0.5,
				-0.4999999403953552,
				0.5000000596046448
			],
			"translation":[
				-20.492084503173828,
				1.6833171844482422,
				13.623244285583496
			]
		}
	],
	"meshes":[
		{
			"name":"door1-2.001",
			"primitives":[
				{
					"attributes":{
						"POSITION":0,
						"NORMAL":1,
						"TEXCOORD_0":2
					},
					"indices":3
				}
			]
		},
		{
			"name":"doorFrame1-2.001",
			"primitives":[
				{
					"attributes":{
						"POSITION":4,
						"NORMAL":5,
						"TEXCOORD_0":6
					},
					"indices":7
				}
			]
		},
		{
			"name":"doorHandle1-2.001",
			"primitives":[
				{
					"attributes":{
						"POSITION":8,
						"NORMAL":9,
						"TEXCOORD_0":10
					},
					"indices":11
				}
			]
		}
	],
	"accessors":[
		{
			"bufferView":0,
			"componentType":5126,
			"count":4,
			"max":[
				0.7974529266357422,
				0,
				1
			],
			"min":[
				-0.8944473266601562,
				0,
				-2.528805732727051
			],
			"type":"VEC3"
		},
		{
			"bufferView":1,
			"componentType":5126,
			"count":4,
			"type":"VEC3"
		},
		{
			"bufferView":2,
			"componentType":5126,
			"count":4,
			"type":"VEC2"
		},
		{
			"bufferView":3,
			"componentType":5123,
			"count":6,
			"type":"SCALAR"
		},
		{
			"bufferView":4,
			"componentType":5126,
			"count":32,
			"max":[
				2.0170271396636963,
				0.2354394793510437,
				-0.003263711929321289
			],
			"min":[
				-0.11702704429626465,
				0.0013853907585144043,
				-3.7373178005218506
			],
			"type":"VEC3"
		},
		{
			"bufferView":5,
			"componentType":5126,
			"count":32,
			"type":"VEC3"
		},
		{
			"bufferView":6,
			"componentType":5126,
			"count":32,
			"type":"VEC2"
		},
		{
			"bufferView":7,
			"componentType":5123,
			"count":54,
			"type":"SCALAR"
		},
		{
			"bufferView":8,
			"componentType":5126,
			"count":46,
			"max":[
				0.17560796439647675,
				0.0634719505906105,
				0.02207425981760025
			],
			"min":[
				-0.02207425981760025,
				-0.02207425981760025,
				-0.02207425981760025
			],
			"type":"VEC3"
		},
		{
			"bufferView":9,
			"componentType":5126,
			"count":46,
			"type":"VEC3"
		},
		{
			"bufferView":10,
			"componentType":5126,
			"count":46,
			"type":"VEC2"
		},
		{
			"bufferView":11,
			"componentType":5123,
			"count":78,
			"type":"SCALAR"
		}
	],
	"bufferViews":[
		{
			"buffer":0,
			"byteLength":48,
			"byteOffset":0,
			"target":34962
		},
		{
			"buffer":0,
			"byteLength":48,
			"byteOffset":48,
			"target":34962
		},
		{
			"buffer":0,
			"byteLength":32,
			"byteOffset":96,
			"target":34962
		},
		{
			"buffer":0,
			"byteLength":12,
			"byteOffset":128,
			"target":34963
		},
		{
			"buffer":0,
			"byteLength":384,
			"byteOffset":140,
			"target":34962
		},
		{
			"buffer":0,
			"byteLength":384,
			"byteOffset":524,
			"target":34962
		},
		{
			"buffer":0,
			"byteLength":256,
			"byteOffset":908,
			"target":34962
		},
		{
			"buffer":0,
			"byteLength":108,
			"byteOffset":1164,
			"target":34963
		},
		{
			"buffer":0,
			"byteLength":552,
			"byteOffset":1272,
			"target":34962
		},
		{
			"buffer":0,
			"byteLength":552,
			"byteOffset":1824,
			"target":34962
		},
		{
			"buffer":0,
			"byteLength":368,
			"byteOffset":2376,
			"target":34962
		},
		{
			"buffer":0,
			"byteLength":156,
			"byteOffset":2744,
			"target":34963
		}
	],
	"buffers":[
		{
			"byteLength":2900,
			"uri":"door.bin"
		}
	]
}
