{
	"asset":{
		"generator":"Khronos glTF Blender I/O v4.0.44",
		"version":"2.0"
	},
	"scene":0,
	"scenes":[
		{
			"name":"Scene",
			"nodes":[
				0
			]
		}
	],
	"nodes":[
		{
			"mesh":0,
			"name":"miniRobo3",
			"rotation":[
				-0.4940527081489563,
				-0.0002675441210158169,
				-0.8694320321083069,
				0.00015203132352326065
			],
			"translation":[
				-4.555361270904541,
				4.29248046875,
				9.47907543182373
			]
		}
	],
	"animations":[
		{
			"channels":[
				{
					"sampler":0,
					"target":{
						"node":0,
						"path":"translation"
					}
				},
				{
					"sampler":1,
					"target":{
						"node":0,
						"path":"rotation"
					}
				},
				{
					"sampler":2,
					"target":{
						"node":0,
						"path":"scale"
					}
				}
			],
			"name":"fullCircle",
			"samplers":[
				{
					"input":4,
					"interpolation":"LINEAR",
					"output":5
				},
				{
					"input":4,
					"interpolation":"LINEAR",
					"output":6
				},
				{
					"input":7,
					"interpolation":"STEP",
					"output":8
				}
			]
		},
		{
			"channels":[
				{
					"sampler":0,
					"target":{
						"node":0,
						"path":"translation"
					}
				},
				{
					"sampler":1,
					"target":{
						"node":0,
						"path":"rotation"
					}
				},
				{
					"sampler":2,
					"target":{
						"node":0,
						"path":"scale"
					}
				}
			],
			"name":"halfCircle",
			"samplers":[
				{
					"input":9,
					"interpolation":"LINEAR",
					"output":10
				},
				{
					"input":9,
					"interpolation":"LINEAR",
					"output":11
				},
				{
					"input":12,
					"interpolation":"STEP",
					"output":13
				}
			]
		}
	],
	"meshes":[
		{
			"name":"miniRobo3",
			"primitives":[
				{
					"attributes":{
						"POSITION":0,
						"NORMAL":1,
						"TEXCOORD_0":2
					},
					"indices":3
				}
			]
		}
	],
	"accessors":[
		{
			"bufferView":0,
			"componentType":5126,
			"count":1378,
			"max":[
				0.868498682975769,
				0.49956652522087097,
				0.29517441987991333
			],
			"min":[
				-0.2737294137477875,
				-0.9512492418289185,
				-2.553182363510132
			],
			"type":"VEC3"
		},
		{
			"bufferView":1,
			"componentType":5126,
			"count":1378,
			"type":"VEC3"
		},
		{
			"bufferView":2,
			"componentType":5126,
			"count":1378,
			"type":"VEC2"
		},
		{
			"bufferView":3,
			"componentType":5123,
			"count":2268,
			"type":"SCALAR"
		},
		{
			"bufferView":4,
			"componentType":5126,
			"count":340,
			"max":[
				14.166666666666666
			],
			"min":[
				0.041666666666666664
			],
			"type":"SCALAR"
		},
		{
			"bufferView":5,
			"componentType":5126,
			"count":340,
			"type":"VEC3"
		},
		{
			"bufferView":6,
			"componentType":5126,
			"count":340,
			"type":"VEC4"
		},
		{
			"bufferView":7,
			"componentType":5126,
			"count":2,
			"max":[
				14.166666666666666
			],
			"min":[
				0.041666666666666664
			],
			"type":"SCALAR"
		},
		{
			"bufferView":8,
			"componentType":5126,
			"count":2,
			"type":"VEC3"
		},
		{
			"bufferView":9,
			"componentType":5126,
			"count":140,
			"max":[
				5.833333333333333
			],
			"min":[
				0.041666666666666664
			],
			"type":"SCALAR"
		},
		{
			"bufferView":10,
			"componentType":5126,
			"count":140,
			"type":"VEC3"
		},
		{
			"bufferView":11,
			"componentType":5126,
			"count":140,
			"type":"VEC4"
		},
		{
			"bufferView":12,
			"componentType":5126,
			"count":2,
			"max":[
				5.833333333333333
			],
			"min":[
				0.041666666666666664
			],
			"type":"SCALAR"
		},
		{
			"bufferView":13,
			"componentType":5126,
			"count":2,
			"type":"VEC3"
		}
	],
	"bufferViews":[
		{
			"buffer":0,
			"byteLength":16536,
			"byteOffset":0,
			"target":34962
		},
		{
			"buffer":0,
			"byteLength":16536,
			"byteOffset":16536,
			"target":34962
		},
		{
			"buffer":0,
			"byteLength":11024,
			"byteOffset":33072,
			"target":34962
		},
		{
			"buffer":0,
			"byteLength":4536,
			"byteOffset":44096,
			"target":34963
		},
		{
			"buffer":0,
			"byteLength":1360,
			"byteOffset":48632
		},
		{
			"buffer":0,
			"byteLength":4080,
			"byteOffset":49992
		},
		{
			"buffer":0,
			"byteLength":5440,
			"byteOffset":54072
		},
		{
			"buffer":0,
			"byteLength":8,
			"byteOffset":59512
		},
		{
			"buffer":0,
			"byteLength":24,
			"byteOffset":59520
		},
		{
			"buffer":0,
			"byteLength":560,
			"byteOffset":59544
		},
		{
			"buffer":0,
			"byteLength":1680,
			"byteOffset":60104
		},
		{
			"buffer":0,
			"byteLength":2240,
			"byteOffset":61784
		},
		{
			"buffer":0,
			"byteLength":8,
			"byteOffset":64024
		},
		{
			"buffer":0,
			"byteLength":24,
			"byteOffset":64032
		}
	],
	"buffers":[
		{
			"byteLength":64056,
			"uri":"miniRobotFly.bin"
		}
	]
}
